<?xml version="1.0" encoding="UTF-8"?>
<svg xmlns:xhtml="http://www.w3.org/1999/xhtml" xmlns:xlink="http://www.w3.org/1999/xlink" xmlns="http://www.w3.org/2000/svg" id="mermaid-svg-61" width="100%" class="flowchart" style="max-width: 100%;" viewBox="-38.25312805175781 -38.25312805175781 1507.1764221191406 841.5688171386719" height="100%"><style>#mermaid-svg-61{font-family:"trebuchet ms",verdana,arial,sans-serif;font-size:16px;fill:#333;}@keyframes edge-animation-frame{from{stroke-dashoffset:0;}}@keyframes dash{to{stroke-dashoffset:0;}}#mermaid-svg-61 .edge-animation-slow{stroke-dasharray:9,5!important;stroke-dashoffset:900;animation:dash 50s linear infinite;stroke-linecap:round;}#mermaid-svg-61 .edge-animation-fast{stroke-dasharray:9,5!important;stroke-dashoffset:900;animation:dash 20s linear infinite;stroke-linecap:round;}#mermaid-svg-61 .error-icon{fill:#552222;}#mermaid-svg-61 .error-text{fill:#552222;stroke:#552222;}#mermaid-svg-61 .edge-thickness-normal{stroke-width:1px;}#mermaid-svg-61 .edge-thickness-thick{stroke-width:3.5px;}#mermaid-svg-61 .edge-pattern-solid{stroke-dasharray:0;}#mermaid-svg-61 .edge-thickness-invisible{stroke-width:0;fill:none;}#mermaid-svg-61 .edge-pattern-dashed{stroke-dasharray:3;}#mermaid-svg-61 .edge-pattern-dotted{stroke-dasharray:2;}#mermaid-svg-61 .marker{fill:#333333;stroke:#333333;}#mermaid-svg-61 .marker.cross{stroke:#333333;}#mermaid-svg-61 svg{font-family:"trebuchet ms",verdana,arial,sans-serif;font-size:16px;}#mermaid-svg-61 p{margin:0;}#mermaid-svg-61 .label{font-family:"trebuchet ms",verdana,arial,sans-serif;color:#333;}#mermaid-svg-61 .cluster-label text{fill:#333;}#mermaid-svg-61 .cluster-label span{color:#333;}#mermaid-svg-61 .cluster-label span p{background-color:transparent;}#mermaid-svg-61 .label text,#mermaid-svg-61 span{fill:#333;color:#333;}#mermaid-svg-61 .node rect,#mermaid-svg-61 .node circle,#mermaid-svg-61 .node ellipse,#mermaid-svg-61 .node polygon,#mermaid-svg-61 .node path{fill:#ECECFF;stroke:#9370DB;stroke-width:1px;}#mermaid-svg-61 .rough-node .label text,#mermaid-svg-61 .node .label text,#mermaid-svg-61 .image-shape .label,#mermaid-svg-61 .icon-shape .label{text-anchor:middle;}#mermaid-svg-61 .node .katex path{fill:#000;stroke:#000;stroke-width:1px;}#mermaid-svg-61 .rough-node .label,#mermaid-svg-61 .node .label,#mermaid-svg-61 .image-shape .label,#mermaid-svg-61 .icon-shape .label{text-align:center;}#mermaid-svg-61 .node.clickable{cursor:pointer;}#mermaid-svg-61 .root .anchor path{fill:#333333!important;stroke-width:0;stroke:#333333;}#mermaid-svg-61 .arrowheadPath{fill:#333333;}#mermaid-svg-61 .edgePath .path{stroke:#333333;stroke-width:2.0px;}#mermaid-svg-61 .flowchart-link{stroke:#333333;fill:none;}#mermaid-svg-61 .edgeLabel{background-color:rgba(232,232,232, 0.8);text-align:center;}#mermaid-svg-61 .edgeLabel p{background-color:rgba(232,232,232, 0.8);}#mermaid-svg-61 .edgeLabel rect{opacity:0.5;background-color:rgba(232,232,232, 0.8);fill:rgba(232,232,232, 0.8);}#mermaid-svg-61 .labelBkg{background-color:rgba(232, 232, 232, 0.5);}#mermaid-svg-61 .cluster rect{fill:#ffffde;stroke:#aaaa33;stroke-width:1px;}#mermaid-svg-61 .cluster text{fill:#333;}#mermaid-svg-61 .cluster span{color:#333;}#mermaid-svg-61 div.mermaidTooltip{position:absolute;text-align:center;max-width:200px;padding:2px;font-family:"trebuchet ms",verdana,arial,sans-serif;font-size:12px;background:hsl(80, 100%, 96.2745098039%);border:1px solid #aaaa33;border-radius:2px;pointer-events:none;z-index:100;}#mermaid-svg-61 .flowchartTitleText{text-anchor:middle;font-size:18px;fill:#333;}#mermaid-svg-61 rect.text{fill:none;stroke-width:0;}#mermaid-svg-61 .icon-shape,#mermaid-svg-61 .image-shape{background-color:rgba(232,232,232, 0.8);text-align:center;}#mermaid-svg-61 .icon-shape p,#mermaid-svg-61 .image-shape p{background-color:rgba(232,232,232, 0.8);padding:2px;}#mermaid-svg-61 .icon-shape rect,#mermaid-svg-61 .image-shape rect{opacity:0.5;background-color:rgba(232,232,232, 0.8);fill:rgba(232,232,232, 0.8);}#mermaid-svg-61 .label-icon{display:inline-block;height:1em;overflow:visible;vertical-align:-0.125em;}#mermaid-svg-61 .node .label-icon path{fill:currentColor;stroke:revert;stroke-width:revert;}#mermaid-svg-61 :root{--mermaid-font-family:"trebuchet ms",verdana,arial,sans-serif;}#mermaid-svg-61 .presentation&gt;*{fill:#e3f2fd!important;}#mermaid-svg-61 .presentation span{fill:#e3f2fd!important;}#mermaid-svg-61 .bridge&gt;*{fill:#fff3e0!important;}#mermaid-svg-61 .bridge span{fill:#fff3e0!important;}#mermaid-svg-61 .kernel&gt;*{fill:#c8e6c9!important;}#mermaid-svg-61 .kernel span{fill:#c8e6c9!important;}#mermaid-svg-61 .infra&gt;*{fill:#f3e5f5!important;}#mermaid-svg-61 .infra span{fill:#f3e5f5!important;}</style><g><marker id="mermaid-svg-61_flowchart-v2-pointEnd" class="marker flowchart-v2" viewBox="0 0 10 10" refX="5" refY="5" markerUnits="userSpaceOnUse" markerWidth="8" markerHeight="8" orient="auto"><path d="M 0 0 L 10 5 L 0 10 z" class="arrowMarkerPath" style="stroke-width: 1; stroke-dasharray: 1, 0;"/></marker><marker id="mermaid-svg-61_flowchart-v2-pointStart" class="marker flowchart-v2" viewBox="0 0 10 10" refX="4.5" refY="5" markerUnits="userSpaceOnUse" markerWidth="8" markerHeight="8" orient="auto"><path d="M 0 5 L 10 10 L 10 0 z" class="arrowMarkerPath" style="stroke-width: 1; stroke-dasharray: 1, 0;"/></marker><marker id="mermaid-svg-61_flowchart-v2-circleEnd" class="marker flowchart-v2" viewBox="0 0 10 10" refX="11" refY="5" markerUnits="userSpaceOnUse" markerWidth="11" markerHeight="11" orient="auto"><circle cx="5" cy="5" r="5" class="arrowMarkerPath" style="stroke-width: 1; stroke-dasharray: 1, 0;"/></marker><marker id="mermaid-svg-61_flowchart-v2-circleStart" class="marker flowchart-v2" viewBox="0 0 10 10" refX="-1" refY="5" markerUnits="userSpaceOnUse" markerWidth="11" markerHeight="11" orient="auto"><circle cx="5" cy="5" r="5" class="arrowMarkerPath" style="stroke-width: 1; stroke-dasharray: 1, 0;"/></marker><marker id="mermaid-svg-61_flowchart-v2-crossEnd" class="marker cross flowchart-v2" viewBox="0 0 11 11" refX="12" refY="5.2" markerUnits="userSpaceOnUse" markerWidth="11" markerHeight="11" orient="auto"><path d="M 1,1 l 9,9 M 10,1 l -9,9" class="arrowMarkerPath" style="stroke-width: 2; stroke-dasharray: 1, 0;"/></marker><marker id="mermaid-svg-61_flowchart-v2-crossStart" class="marker cross flowchart-v2" viewBox="0 0 11 11" refX="-1" refY="5.2" markerUnits="userSpaceOnUse" markerWidth="11" markerHeight="11" orient="auto"><path d="M 1,1 l 9,9 M 10,1 l -9,9" class="arrowMarkerPath" style="stroke-width: 2; stroke-dasharray: 1, 0;"/></marker><g class="root"><g class="clusters"><g class="cluster" id="基础设施层" data-look="classic"><rect style="" x="378.88977432250977" y="653.0520896911621" width="517.4739685058594" height="104.01041793823242"/><g class="cluster-label" transform="translate(597.6267585754395, 653.0520896911621)"><foreignObject width="80" height="24.010417938232422"><div xmlns="http://www.w3.org/1999/xhtml" style="display: table-cell; white-space: nowrap; line-height: 1.5; max-width: 200px; text-align: center;"><span class="nodeLabel"><p>基础设施层</p></span></div></foreignObject></g></g><g class="cluster" id="subGraph2" data-look="classic"><rect style="" x="50.33073425292969" y="291.02083587646484" width="1312.773494720459" height="312.03125381469727"/><g class="cluster-label" transform="translate(606.7174663543701, 291.02083587646484)"><foreignObject width="200.00003051757812" height="24.010417938232422"><div xmlns="http://www.w3.org/1999/xhtml" style="display: table-cell; white-space: nowrap; line-height: 1.5; max-width: 200px; text-align: center;"><span class="nodeLabel"><p>几何内核层 (GeometryKernel)</p></span></div></foreignObject></g></g><g class="cluster" id="subGraph1" data-look="classic"><rect style="" x="8" y="137.01041793823242" width="802.7951698303223" height="104.01041793823242"/><g class="cluster-label" transform="translate(354.35418128967285, 137.01041793823242)"><foreignObject width="110.08680725097656" height="24.010417938232422"><div xmlns="http://www.w3.org/1999/xhtml" style="display: table-cell; white-space: nowrap; line-height: 1.5; max-width: 200px; text-align: center;"><span class="nodeLabel"><p>桥接层 (Bridge)</p></span></div></foreignObject></g></g><g class="cluster" id="subGraph0" data-look="classic"><rect style="" x="830.7951698303223" y="8" width="591.8750305175781" height="233.02083587646484"/><g class="cluster-label" transform="translate(1049.423656463623, 8)"><foreignObject width="154.61805725097656" height="24.010417938232422"><div xmlns="http://www.w3.org/1999/xhtml" style="display: table-cell; white-space: nowrap; line-height: 1.5; max-width: 200px; text-align: center;"><span class="nodeLabel"><p>表现层 (Presentation)</p></span></div></foreignObject></g></g></g><g class="edgePaths"><path d="M904.824,87.01L901.347,91.177C897.871,95.344,890.917,103.677,887.44,112.01C883.964,120.344,883.964,128.677,776.884,140.331C669.805,151.986,455.646,166.961,348.566,174.449L241.487,181.936" id="L_View_Observer_0" class="edge-thickness-normal edge-pattern-solid edge-thickness-normal edge-pattern-solid flowchart-link" style="" marker-end="url(#mermaid-svg-61_flowchart-v2-pointEnd)"/><path d="M915.21,87.01L913.335,91.177C911.461,95.344,907.712,103.677,905.838,112.01C903.964,120.344,903.964,128.677,832.869,139.906C761.775,151.135,619.586,165.261,548.492,172.323L477.397,179.386" id="L_View_SelectionMgr_0" class="edge-thickness-normal edge-pattern-solid edge-thickness-normal edge-pattern-solid flowchart-link" style="" marker-end="url(#mermaid-svg-61_flowchart-v2-pointEnd)"/><path d="M966.689,87.01L972.757,91.177C978.826,95.344,990.963,103.677,997.031,112.01C1003.1,120.344,1003.1,128.677,959.885,139.046C916.669,149.415,830.239,161.82,787.024,168.023L743.808,174.226" id="L_View_CommandProc_0" class="edge-thickness-normal edge-pattern-solid edge-thickness-normal edge-pattern-solid flowchart-link" style="" marker-end="url(#mermaid-svg-61_flowchart-v2-pointEnd)"/><path d="M977.075,87.01L984.745,91.177C992.416,95.344,1007.758,103.677,1015.429,112.01C1023.1,120.344,1023.1,128.677,1023.1,136.344C1023.1,144.01,1023.1,151.01,1023.1,154.51L1023.1,158.01" id="L_View_Renderer_0" class="edge-thickness-normal edge-pattern-solid edge-thickness-normal edge-pattern-solid flowchart-link" style="" marker-end="url(#mermaid-svg-61_flowchart-v2-pointEnd)"/><path d="M1118.842,87.01L1118.842,91.177C1118.842,95.344,1118.842,103.677,1118.842,112.01C1118.842,120.344,1118.842,128.677,1011.936,140.373C905.03,152.069,691.219,167.128,584.313,174.658L477.407,182.187" id="L_PropertyPanel_SelectionMgr_0" class="edge-thickness-normal edge-pattern-solid edge-thickness-normal edge-pattern-solid flowchart-link" style="" marker-end="url(#mermaid-svg-61_flowchart-v2-pointEnd)"/><path d="M1268.989,87.01L1261.394,91.177C1253.798,95.344,1238.608,103.677,1231.012,112.01C1223.417,120.344,1223.417,128.677,1099.082,140.514C974.748,152.352,726.078,167.693,601.744,175.364L477.409,183.034" id="L_Controllers_SelectionMgr_0" class="edge-thickness-normal edge-pattern-solid edge-thickness-normal edge-pattern-solid flowchart-link" style="" marker-end="url(#mermaid-svg-61_flowchart-v2-pointEnd)"/><path d="M1320.755,87.01L1321.146,91.177C1321.538,95.344,1322.321,103.677,1322.713,112.01C1323.104,120.344,1323.104,128.677,1226.56,140.202C1130.015,151.727,936.926,166.443,840.382,173.801L743.837,181.16" id="L_Controllers_CommandProc_0" class="edge-thickness-normal edge-pattern-solid edge-thickness-normal edge-pattern-solid flowchart-link" style="" marker-end="url(#mermaid-svg-61_flowchart-v2-pointEnd)"/><path d="M1331.14,87.01L1333.134,91.177C1335.128,95.344,1339.116,103.677,1341.11,112.01C1343.104,120.344,1343.104,128.677,1343.104,141.511C1343.104,154.345,1343.104,171.681,1343.104,189.016C1343.104,206.351,1343.104,223.686,1343.104,236.52C1343.104,249.354,1343.104,257.688,1343.104,266.021C1343.104,274.354,1343.104,282.688,1343.104,295.522C1343.104,308.356,1343.104,325.691,1343.104,343.026C1343.104,360.361,1343.104,377.696,1343.104,395.031C1343.104,412.366,1343.104,429.701,1343.104,447.036C1343.104,464.372,1343.104,481.707,1205.24,498.132C1067.377,514.557,791.649,530.072,653.785,537.829L515.922,545.587" id="L_Controllers_Shapes_0" class="edge-thickness-normal edge-pattern-solid edge-thickness-normal edge-pattern-solid flowchart-link" style="" marker-end="url(#mermaid-svg-61_flowchart-v2-pointEnd)"/><path d="M140.248,216.021L140.248,220.188C140.248,224.354,140.248,232.688,140.248,241.021C140.248,249.354,140.248,257.688,140.248,266.021C140.248,274.354,140.248,282.688,140.248,290.354C140.248,298.021,140.248,305.021,140.248,308.521L140.248,312.021" id="L_Observer_Events_0" class="edge-thickness-normal edge-pattern-solid edge-thickness-normal edge-pattern-solid flowchart-link" style="" marker-end="url(#mermaid-svg-61_flowchart-v2-pointEnd)"/><path d="M380.457,216.021L380.457,220.188C380.457,224.354,380.457,232.688,380.457,241.021C380.457,249.354,380.457,257.688,380.457,266.021C380.457,274.354,380.457,282.688,380.457,295.522C380.457,308.356,380.457,325.691,380.457,343.026C380.457,360.361,380.457,377.696,380.457,395.031C380.457,412.366,380.457,429.701,380.457,447.036C380.457,464.372,380.457,481.707,383.14,494.005C385.823,506.303,391.189,513.564,393.872,517.194L396.555,520.825" id="L_SelectionMgr_Shapes_0" class="edge-thickness-normal edge-pattern-solid edge-thickness-normal edge-pattern-solid flowchart-link" style="" marker-end="url(#mermaid-svg-61_flowchart-v2-pointEnd)"/><path d="M612.065,216.021L607.637,220.188C603.21,224.354,594.355,232.688,589.927,241.021C585.5,249.354,585.5,257.688,585.5,266.021C585.5,274.354,585.5,282.688,585.5,290.354C585.5,298.021,585.5,305.021,585.5,308.521L585.5,312.021" id="L_CommandProc_Operations_0" class="edge-thickness-normal edge-pattern-solid edge-thickness-normal edge-pattern-solid flowchart-link" style="" marker-end="url(#mermaid-svg-61_flowchart-v2-pointEnd)"/><path d="M689.048,216.021L696.499,220.188C703.949,224.354,718.85,232.688,726.3,241.021C733.751,249.354,733.751,257.688,733.751,266.021C733.751,274.354,733.751,282.688,733.751,295.522C733.751,308.356,733.751,325.691,733.751,343.026C733.751,360.361,733.751,377.696,733.751,395.031C733.751,412.366,733.751,429.701,733.751,447.036C733.751,464.372,733.751,481.707,697.438,496.372C661.125,511.037,588.5,523.033,552.187,529.03L515.875,535.028" id="L_CommandProc_Shapes_0" class="edge-thickness-normal edge-pattern-solid edge-thickness-normal edge-pattern-solid flowchart-link" style="" marker-end="url(#mermaid-svg-61_flowchart-v2-pointEnd)"/><path d="M547.063,370.031L541.133,374.198C535.203,378.365,523.342,386.698,517.411,399.532C511.481,412.366,511.481,429.701,511.481,447.036C511.481,464.372,511.481,481.707,504.644,494.214C497.807,506.722,484.132,514.402,477.295,518.243L470.458,522.083" id="L_Operations_Shapes_0" class="edge-thickness-normal edge-pattern-solid edge-thickness-normal edge-pattern-solid flowchart-link" style="" marker-end="url(#mermaid-svg-61_flowchart-v2-pointEnd)"/><path d="M610.506,370.031L614.364,374.198C618.223,378.365,625.939,386.698,629.797,394.365C633.655,402.031,633.655,409.031,633.655,412.531L633.655,416.031" id="L_Operations_Topology_0" class="edge-thickness-normal edge-pattern-solid edge-thickness-normal edge-pattern-solid flowchart-link" style="" marker-end="url(#mermaid-svg-61_flowchart-v2-pointEnd)"/><path d="M600.412,474.042L595.282,478.208C590.153,482.375,579.895,490.708,563.318,498.824C546.741,506.94,523.846,514.839,512.398,518.788L500.951,522.737" id="L_Topology_Shapes_0" class="edge-thickness-normal edge-pattern-solid edge-thickness-normal edge-pattern-solid flowchart-link" style="" marker-end="url(#mermaid-svg-61_flowchart-v2-pointEnd)"/><path d="M140.248,370.031L140.248,374.198C140.248,378.365,140.248,386.698,140.248,399.532C140.248,412.366,140.248,429.701,140.248,447.036C140.248,464.372,140.248,481.707,170.527,496.025C200.805,510.344,261.362,521.646,291.641,527.297L321.919,532.948" id="L_Events_Shapes_0" class="edge-thickness-normal edge-pattern-solid edge-thickness-normal edge-pattern-solid flowchart-link" style="" marker-end="url(#mermaid-svg-61_flowchart-v2-pointEnd)"/><path d="M418.89,578.052L418.89,582.219C418.89,586.385,418.89,594.719,418.89,603.052C418.89,611.385,418.89,619.719,418.89,628.052C418.89,636.385,418.89,644.719,428.531,652.801C438.171,660.884,457.453,668.715,467.094,672.631L476.734,676.547" id="L_Shapes_Utils_0" class="edge-thickness-normal edge-pattern-solid edge-thickness-normal edge-pattern-solid flowchart-link" style="" marker-end="url(#mermaid-svg-61_flowchart-v2-pointEnd)"/><path d="M641.386,474.042L642.579,478.208C643.772,482.375,646.157,490.708,647.35,503.543C648.543,516.377,648.543,533.712,648.543,551.047C648.543,568.382,648.543,585.717,648.543,598.551C648.543,611.385,648.543,619.719,648.543,628.052C648.543,636.385,648.543,644.719,640.995,652.748C633.447,660.778,618.351,668.504,610.803,672.367L603.255,676.23" id="L_Topology_Utils_0" class="edge-thickness-normal edge-pattern-solid edge-thickness-normal edge-pattern-solid flowchart-link" style="" marker-end="url(#mermaid-svg-61_flowchart-v2-pointEnd)"/></g><g class="edgeLabels"><g class="edgeLabel"><g class="label" transform="translate(0, 0)"><foreignObject width="0" height="0"><div xmlns="http://www.w3.org/1999/xhtml" class="labelBkg" style="display: table-cell; white-space: nowrap; line-height: 1.5; max-width: 200px; text-align: center;"><span class="edgeLabel"></span></div></foreignObject></g></g><g class="edgeLabel"><g class="label" transform="translate(0, 0)"><foreignObject width="0" height="0"><div xmlns="http://www.w3.org/1999/xhtml" class="labelBkg" style="display: table-cell; white-space: nowrap; line-height: 1.5; max-width: 200px; text-align: center;"><span class="edgeLabel"></span></div></foreignObject></g></g><g class="edgeLabel"><g class="label" transform="translate(0, 0)"><foreignObject width="0" height="0"><div xmlns="http://www.w3.org/1999/xhtml" class="labelBkg" style="display: table-cell; white-space: nowrap; line-height: 1.5; max-width: 200px; text-align: center;"><span class="edgeLabel"></span></div></foreignObject></g></g><g class="edgeLabel"><g class="label" transform="translate(0, 0)"><foreignObject width="0" height="0"><div xmlns="http://www.w3.org/1999/xhtml" class="labelBkg" style="display: table-cell; white-space: nowrap; line-height: 1.5; max-width: 200px; text-align: center;"><span class="edgeLabel"></span></div></foreignObject></g></g><g class="edgeLabel"><g class="label" transform="translate(0, 0)"><foreignObject width="0" height="0"><div xmlns="http://www.w3.org/1999/xhtml" class="labelBkg" style="display: table-cell; white-space: nowrap; line-height: 1.5; max-width: 200px; text-align: center;"><span class="edgeLabel"></span></div></foreignObject></g></g><g class="edgeLabel"><g class="label" transform="translate(0, 0)"><foreignObject width="0" height="0"><div xmlns="http://www.w3.org/1999/xhtml" class="labelBkg" style="display: table-cell; white-space: nowrap; line-height: 1.5; max-width: 200px; text-align: center;"><span class="edgeLabel"></span></div></foreignObject></g></g><g class="edgeLabel"><g class="label" transform="translate(0, 0)"><foreignObject width="0" height="0"><div xmlns="http://www.w3.org/1999/xhtml" class="labelBkg" style="display: table-cell; white-space: nowrap; line-height: 1.5; max-width: 200px; text-align: center;"><span class="edgeLabel"></span></div></foreignObject></g></g><g class="edgeLabel"><g class="label" transform="translate(0, 0)"><foreignObject width="0" height="0"><div xmlns="http://www.w3.org/1999/xhtml" class="labelBkg" style="display: table-cell; white-space: nowrap; line-height: 1.5; max-width: 200px; text-align: center;"><span class="edgeLabel"></span></div></foreignObject></g></g><g class="edgeLabel"><g class="label" transform="translate(0, 0)"><foreignObject width="0" height="0"><div xmlns="http://www.w3.org/1999/xhtml" class="labelBkg" style="display: table-cell; white-space: nowrap; line-height: 1.5; max-width: 200px; text-align: center;"><span class="edgeLabel"></span></div></foreignObject></g></g><g class="edgeLabel"><g class="label" transform="translate(0, 0)"><foreignObject width="0" height="0"><div xmlns="http://www.w3.org/1999/xhtml" class="labelBkg" style="display: table-cell; white-space: nowrap; line-height: 1.5; max-width: 200px; text-align: center;"><span class="edgeLabel"></span></div></foreignObject></g></g><g class="edgeLabel"><g class="label" transform="translate(0, 0)"><foreignObject width="0" height="0"><div xmlns="http://www.w3.org/1999/xhtml" class="labelBkg" style="display: table-cell; white-space: nowrap; line-height: 1.5; max-width: 200px; text-align: center;"><span class="edgeLabel"></span></div></foreignObject></g></g><g class="edgeLabel"><g class="label" transform="translate(0, 0)"><foreignObject width="0" height="0"><div xmlns="http://www.w3.org/1999/xhtml" class="labelBkg" style="display: table-cell; white-space: nowrap; line-height: 1.5; max-width: 200px; text-align: center;"><span class="edgeLabel"></span></div></foreignObject></g></g><g class="edgeLabel"><g class="label" transform="translate(0, 0)"><foreignObject width="0" height="0"><div xmlns="http://www.w3.org/1999/xhtml" class="labelBkg" style="display: table-cell; white-space: nowrap; line-height: 1.5; max-width: 200px; text-align: center;"><span class="edgeLabel"></span></div></foreignObject></g></g><g class="edgeLabel"><g class="label" transform="translate(0, 0)"><foreignObject width="0" height="0"><div xmlns="http://www.w3.org/1999/xhtml" class="labelBkg" style="display: table-cell; white-space: nowrap; line-height: 1.5; max-width: 200px; text-align: center;"><span class="edgeLabel"></span></div></foreignObject></g></g><g class="edgeLabel"><g class="label" transform="translate(0, 0)"><foreignObject width="0" height="0"><div xmlns="http://www.w3.org/1999/xhtml" class="labelBkg" style="display: table-cell; white-space: nowrap; line-height: 1.5; max-width: 200px; text-align: center;"><span class="edgeLabel"></span></div></foreignObject></g></g><g class="edgeLabel"><g class="label" transform="translate(0, 0)"><foreignObject width="0" height="0"><div xmlns="http://www.w3.org/1999/xhtml" class="labelBkg" style="display: table-cell; white-space: nowrap; line-height: 1.5; max-width: 200px; text-align: center;"><span class="edgeLabel"></span></div></foreignObject></g></g><g class="edgeLabel"><g class="label" transform="translate(0, 0)"><foreignObject width="0" height="0"><div xmlns="http://www.w3.org/1999/xhtml" class="labelBkg" style="display: table-cell; white-space: nowrap; line-height: 1.5; max-width: 200px; text-align: center;"><span class="edgeLabel"></span></div></foreignObject></g></g><g class="edgeLabel"><g class="label" transform="translate(0, 0)"><foreignObject width="0" height="0"><div xmlns="http://www.w3.org/1999/xhtml" class="labelBkg" style="display: table-cell; white-space: nowrap; line-height: 1.5; max-width: 200px; text-align: center;"><span class="edgeLabel"></span></div></foreignObject></g></g></g><g class="nodes"><g class="node default presentation" id="flowchart-View-0" transform="translate(927.3576774597168, 60.00520896911621)"><rect class="basic label-container" style="fill:#e3f2fd !important" x="-61.562503814697266" y="-27.00520896911621" width="123.12500762939453" height="54.01041793823242"/><g class="label" style="" transform="translate(-31.562503814697266, -12.005208969116211)"><rect/><foreignObject width="63.12500762939453" height="24.010417938232422"><div xmlns="http://www.w3.org/1999/xhtml" style="display: table-cell; white-space: nowrap; line-height: 1.5; max-width: 200px; text-align: center;"><span class="nodeLabel"><p>CADView</p></span></div></foreignObject></g></g><g class="node default presentation" id="flowchart-PropertyPanel-1" transform="translate(1118.8420677185059, 60.00520896911621)"><rect class="basic label-container" style="fill:#e3f2fd !important" x="-79.92188262939453" y="-27.00520896911621" width="159.84376525878906" height="54.01041793823242"/><g class="label" style="" transform="translate(-49.92188262939453, -12.005208969116211)"><rect/><foreignObject width="99.84376525878906" height="24.010417938232422"><div xmlns="http://www.w3.org/1999/xhtml" style="display: table-cell; white-space: nowrap; line-height: 1.5; max-width: 200px; text-align: center;"><span class="nodeLabel"><p>PropertyPanel</p></span></div></foreignObject></g></g><g class="node default presentation" id="flowchart-Renderer-2" transform="translate(1023.0998725891113, 189.01562690734863)"><rect class="basic label-container" style="fill:#e3f2fd !important" x="-64.69618225097656" y="-27.00520896911621" width="129.39236450195312" height="54.01041793823242"/><g class="label" style="" transform="translate(-34.69618225097656, -12.005208969116211)"><rect/><foreignObject width="69.39236450195312" height="24.010417938232422"><div xmlns="http://www.w3.org/1999/xhtml" style="display: table-cell; white-space: nowrap; line-height: 1.5; max-width: 200px; text-align: center;"><span class="nodeLabel"><p>IRenderer</p></span></div></foreignObject></g></g><g class="node default presentation" id="flowchart-Controllers-3" transform="translate(1318.2170753479004, 60.00520896911621)"><rect class="basic label-container" style="fill:#e3f2fd !important" x="-69.453125" y="-27.00520896911621" width="138.90625" height="54.01041793823242"/><g class="label" style="" transform="translate(-39.453125, -12.005208969116211)"><rect/><foreignObject width="78.90625" height="24.010417938232422"><div xmlns="http://www.w3.org/1999/xhtml" style="display: table-cell; white-space: nowrap; line-height: 1.5; max-width: 200px; text-align: center;"><span class="nodeLabel"><p>Controllers</p></span></div></foreignObject></g></g><g class="node default bridge" id="flowchart-Observer-4" transform="translate(140.2482681274414, 189.01562690734863)"><rect class="basic label-container" style="fill:#fff3e0 !important" x="-97.2482681274414" y="-27.00520896911621" width="194.4965362548828" height="54.01041793823242"/><g class="label" style="" transform="translate(-67.2482681274414, -12.005208969116211)"><rect/><foreignObject width="134.4965362548828" height="24.010417938232422"><div xmlns="http://www.w3.org/1999/xhtml" style="display: table-cell; white-space: nowrap; line-height: 1.5; max-width: 200px; text-align: center;"><span class="nodeLabel"><p>GeometryObserver</p></span></div></foreignObject></g></g><g class="node default bridge" id="flowchart-SelectionMgr-5" transform="translate(380.4566116333008, 189.01562690734863)"><rect class="basic label-container" style="fill:#fff3e0 !important" x="-92.9600715637207" y="-27.00520896911621" width="185.9201431274414" height="54.01041793823242"/><g class="label" style="" transform="translate(-62.9600715637207, -12.005208969116211)"><rect/><foreignObject width="125.9201431274414" height="24.010417938232422"><div xmlns="http://www.w3.org/1999/xhtml" style="display: table-cell; white-space: nowrap; line-height: 1.5; max-width: 200px; text-align: center;"><span class="nodeLabel"><p>SelectionManager</p></span></div></foreignObject></g></g><g class="node default bridge" id="flowchart-CommandProc-6" transform="translate(640.7604446411133, 189.01562690734863)"><rect class="basic label-container" style="fill:#fff3e0 !important" x="-99.08854675292969" y="-27.00520896911621" width="198.17709350585938" height="54.01041793823242"/><g class="label" style="" transform="translate(-69.08854675292969, -12.005208969116211)"><rect/><foreignObject width="138.17709350585938" height="24.010417938232422"><div xmlns="http://www.w3.org/1999/xhtml" style="display: table-cell; white-space: nowrap; line-height: 1.5; max-width: 200px; text-align: center;"><span class="nodeLabel"><p>CommandProcessor</p></span></div></foreignObject></g></g><g class="node default kernel" id="flowchart-Shapes-7" transform="translate(418.88977432250977, 551.0468807220459)"><rect class="basic label-container" style="fill:#c8e6c9 !important" x="-93.0381965637207" y="-27.00520896911621" width="186.0763931274414" height="54.01041793823242"/><g class="label" style="" transform="translate(-63.0381965637207, -12.005208969116211)"><rect/><foreignObject width="126.0763931274414" height="24.010417938232422"><div xmlns="http://www.w3.org/1999/xhtml" style="display: table-cell; white-space: nowrap; line-height: 1.5; max-width: 200px; text-align: center;"><span class="nodeLabel"><p>Primitives/IShape</p></span></div></foreignObject></g></g><g class="node default kernel" id="flowchart-Topology-8" transform="translate(633.6554069519043, 447.0364627838135)"><rect class="basic label-container" style="fill:#c8e6c9 !important" x="-61.310768127441406" y="-27.00520896911621" width="122.62153625488281" height="54.01041793823242"/><g class="label" style="" transform="translate(-31.310768127441406, -12.005208969116211)"><rect/><foreignObject width="62.62153625488281" height="24.010417938232422"><div xmlns="http://www.w3.org/1999/xhtml" style="display: table-cell; white-space: nowrap; line-height: 1.5; max-width: 200px; text-align: center;"><span class="nodeLabel"><p>Topology</p></span></div></foreignObject></g></g><g class="node default kernel" id="flowchart-Operations-9" transform="translate(585.5000228881836, 343.02604484558105)"><rect class="basic label-container" style="fill:#c8e6c9 !important" x="-68.88021087646484" y="-27.00520896911621" width="137.7604217529297" height="54.01041793823242"/><g class="label" style="" transform="translate(-38.880210876464844, -12.005208969116211)"><rect/><foreignObject width="77.76042175292969" height="24.010417938232422"><div xmlns="http://www.w3.org/1999/xhtml" style="display: table-cell; white-space: nowrap; line-height: 1.5; max-width: 200px; text-align: center;"><span class="nodeLabel"><p>Operations</p></span></div></foreignObject></g></g><g class="node default kernel" id="flowchart-Events-10" transform="translate(140.2482681274414, 343.02604484558105)"><rect class="basic label-container" style="fill:#c8e6c9 !important" x="-53.35069465637207" y="-27.00520896911621" width="106.70138931274414" height="54.01041793823242"/><g class="label" style="" transform="translate(-23.35069465637207, -12.005208969116211)"><rect/><foreignObject width="46.70138931274414" height="24.010417938232422"><div xmlns="http://www.w3.org/1999/xhtml" style="display: table-cell; white-space: nowrap; line-height: 1.5; max-width: 200px; text-align: center;"><span class="nodeLabel"><p>Events</p></span></div></foreignObject></g></g><g class="node default infra" id="flowchart-Utils-11" transform="translate(546.9279747009277, 705.0572986602783)"><rect class="basic label-container" style="fill:#f3e5f5 !important" x="-107.02257537841797" y="-27.00520896911621" width="214.04515075683594" height="54.01041793823242"/><g class="label" style="" transform="translate(-77.02257537841797, -12.005208969116211)"><rect/><foreignObject width="154.04515075683594" height="24.010417938232422"><div xmlns="http://www.w3.org/1999/xhtml" style="display: table-cell; white-space: nowrap; line-height: 1.5; max-width: 200px; text-align: center;"><span class="nodeLabel"><p>Point3D/BoundingBox</p></span></div></foreignObject></g></g><g class="node default infra" id="flowchart-Enums-12" transform="translate(782.6571464538574, 705.0572986602783)"><rect class="basic label-container" style="fill:#f3e5f5 !important" x="-78.70660018920898" y="-27.00520896911621" width="157.41320037841797" height="54.01041793823242"/><g class="label" style="" transform="translate(-48.706600189208984, -12.005208969116211)"><rect/><foreignObject width="97.41320037841797" height="24.010417938232422"><div xmlns="http://www.w3.org/1999/xhtml" style="display: table-cell; white-space: nowrap; line-height: 1.5; max-width: 200px; text-align: center;"><span class="nodeLabel"><p>Enumerations</p></span></div></foreignObject></g></g></g></g></g></svg>